<?xml version="1.0" encoding="UTF-8" standalone="no"?>
<!-- Created with Inkscape (http://www.inkscape.org/) -->
<svg
   xmlns:dc="http://purl.org/dc/elements/1.1/"
   xmlns:cc="http://web.resource.org/cc/"
   xmlns:rdf="http://www.w3.org/1999/02/22-rdf-syntax-ns#"
   xmlns:svg="http://www.w3.org/2000/svg"
   xmlns="http://www.w3.org/2000/svg"
   xmlns:xlink="http://www.w3.org/1999/xlink"
   xmlns:sodipodi="http://sodipodi.sourceforge.net/DTD/sodipodi-0.dtd"
   xmlns:inkscape="http://www.inkscape.org/namespaces/inkscape"
   width="160"
   height="100"
   id="svg2095"
   sodipodi:version="0.32"
   inkscape:version="0.44"
   version="1.0"
   sodipodi:docbase="/home/yekcim/Desktop"
   sodipodi:docname="bilson.svg">
  <defs
     id="defs2097">
    <radialGradient
       gradientUnits="userSpaceOnUse"
       gradientTransform="matrix(1,0,0,1.2,0,-52.03003)"
       r="2.5253813"
       fy="260.15005"
       fx="-601.7984"
       cy="260.15005"
       cx="-601.7984"
       id="radialGradient3755"
       xlink:href="#linearGradient3749"
       inkscape:collect="always" />
    <radialGradient
       r="2.5253813"
       fy="260.15005"
       fx="-601.7984"
       cy="260.15005"
       cx="-601.7984"
       gradientTransform="matrix(1,0,0,1.2,0,-52.03003)"
       gradientUnits="userSpaceOnUse"
       id="radialGradient3811"
       xlink:href="#linearGradient3749"
       inkscape:collect="always" />
    <radialGradient
       r="2.5253813"
       fy="260.15005"
       fx="-601.7984"
       cy="260.15005"
       cx="-601.7984"
       gradientTransform="matrix(1,0,0,1.2,0,-52.03003)"
       gradientUnits="userSpaceOnUse"
       id="radialGradient3807"
       xlink:href="#linearGradient3749"
       inkscape:collect="always" />
    <radialGradient
       r="2.5253813"
       fy="260.15005"
       fx="-601.7984"
       cy="260.15005"
       cx="-601.7984"
       gradientTransform="matrix(1,0,0,1.2,0,-52.03003)"
       gradientUnits="userSpaceOnUse"
       id="radialGradient3803"
       xlink:href="#linearGradient3749"
       inkscape:collect="always" />
    <radialGradient
       r="2.5253813"
       fy="260.15005"
       fx="-601.7984"
       cy="260.15005"
       cx="-601.7984"
       gradientTransform="matrix(1,0,0,1.2,0,-52.03003)"
       gradientUnits="userSpaceOnUse"
       id="radialGradient3799"
       xlink:href="#linearGradient3749"
       inkscape:collect="always" />
    <radialGradient
       r="2.5253813"
       fy="260.15005"
       fx="-601.7984"
       cy="260.15005"
       cx="-601.7984"
       gradientTransform="matrix(1,0,0,1.2,0,-52.03003)"
       gradientUnits="userSpaceOnUse"
       id="radialGradient3795"
       xlink:href="#linearGradient3749"
       inkscape:collect="always" />
    <radialGradient
       r="2.5253813"
       fy="260.15005"
       fx="-601.7984"
       cy="260.15005"
       cx="-601.7984"
       gradientTransform="matrix(1,0,0,1.2,0,-52.03003)"
       gradientUnits="userSpaceOnUse"
       id="radialGradient3791"
       xlink:href="#linearGradient3749"
       inkscape:collect="always" />
    <radialGradient
       r="2.5253813"
       fy="260.15005"
       fx="-601.7984"
       cy="260.15005"
       cx="-601.7984"
       gradientTransform="matrix(1,0,0,1.2,0,-52.03003)"
       gradientUnits="userSpaceOnUse"
       id="radialGradient3787"
       xlink:href="#linearGradient3749"
       inkscape:collect="always" />
    <radialGradient
       r="2.5253813"
       fy="260.15005"
       fx="-601.7984"
       cy="260.15005"
       cx="-601.7984"
       gradientTransform="matrix(1,0,0,1.2,0,-52.03003)"
       gradientUnits="userSpaceOnUse"
       id="radialGradient3783"
       xlink:href="#linearGradient3749"
       inkscape:collect="always" />
    <radialGradient
       r="2.5253813"
       fy="260.15005"
       fx="-601.7984"
       cy="260.15005"
       cx="-601.7984"
       gradientTransform="matrix(1,0,0,1.2,0,-52.03003)"
       gradientUnits="userSpaceOnUse"
       id="radialGradient3779"
       xlink:href="#linearGradient3749"
       inkscape:collect="always" />
    <radialGradient
       r="2.5253813"
       fy="260.15005"
       fx="-601.7984"
       cy="260.15005"
       cx="-601.7984"
       gradientTransform="matrix(1,0,0,1.2,0,-52.03003)"
       gradientUnits="userSpaceOnUse"
       id="radialGradient3775"
       xlink:href="#linearGradient3749"
       inkscape:collect="always" />
    <radialGradient
       r="2.5253813"
       fy="260.15005"
       fx="-601.7984"
       cy="260.15005"
       cx="-601.7984"
       gradientTransform="matrix(1,0,0,1.2,0,-52.03003)"
       gradientUnits="userSpaceOnUse"
       id="radialGradient3771"
       xlink:href="#linearGradient3749"
       inkscape:collect="always" />
    <radialGradient
       r="2.5253813"
       fy="260.15005"
       fx="-601.7984"
       cy="260.15005"
       cx="-601.7984"
       gradientTransform="matrix(1,0,0,1.2,0,-52.03003)"
       gradientUnits="userSpaceOnUse"
       id="radialGradient3767"
       xlink:href="#linearGradient3749"
       inkscape:collect="always" />
    <radialGradient
       r="2.5253813"
       fy="260.15005"
       fx="-601.7984"
       cy="260.15005"
       cx="-601.7984"
       gradientTransform="matrix(1,0,0,1.2,0,-52.03003)"
       gradientUnits="userSpaceOnUse"
       id="radialGradient3763"
       xlink:href="#linearGradient3749"
       inkscape:collect="always" />
    <linearGradient
       id="linearGradient3749">
      <stop
         id="stop3751"
         offset="0"
         style="stop-color:#722e00;stop-opacity:1;" />
      <stop
         style="stop-color:#722e00;stop-opacity:1;"
         offset="0.5"
         id="stop3813" />
      <stop
         id="stop3753"
         offset="1"
         style="stop-color:#722e00;stop-opacity:0;" />
    </linearGradient>
    <radialGradient
       r="2.5253813"
       fy="260.15005"
       fx="-601.7984"
       cy="260.15005"
       cx="-601.7984"
       gradientTransform="matrix(1,0,0,1.2,0,-52.03003)"
       gradientUnits="userSpaceOnUse"
       id="radialGradient3759"
       xlink:href="#linearGradient3749"
       inkscape:collect="always" />
    <linearGradient
       gradientUnits="userSpaceOnUse"
       y2="273.72971"
       x2="-746.70801"
       y1="401.65866"
       x1="-746.70801"
       id="linearGradient3857"
       xlink:href="#linearGradient3851"
       inkscape:collect="always" />
    <linearGradient
       id="linearGradient3851">
      <stop
         id="stop3853"
         offset="0"
         style="stop-color:#dcdcdc;stop-opacity:1;" />
      <stop
         id="stop3855"
         offset="1"
         style="stop-color:white;stop-opacity:1;" />
    </linearGradient>
    <linearGradient
       y2="273.72971"
       x2="-746.70801"
       y1="401.65866"
       x1="-746.70801"
       gradientUnits="userSpaceOnUse"
       id="linearGradient4057"
       xlink:href="#linearGradient3851"
       inkscape:collect="always" />
  </defs>
  <sodipodi:namedview
     id="base"
     pagecolor="#ffffff"
     bordercolor="#666666"
     borderopacity="1.0"
     inkscape:pageopacity="0.0"
     inkscape:pageshadow="2"
     inkscape:zoom="4.22"
     inkscape:cx="80"
     inkscape:cy="50"
     inkscape:document-units="px"
     inkscape:current-layer="layer1"
     width="160px"
     height="100px"
     inkscape:window-width="1024"
     inkscape:window-height="626"
     inkscape:window-x="0"
     inkscape:window-y="25" />
  <metadata
     id="metadata2100">
    <rdf:RDF>
      <cc:Work
         rdf:about="">
        <dc:format>image/svg+xml</dc:format>
        <dc:type
           rdf:resource="http://purl.org/dc/dcmitype/StillImage" />
      </cc:Work>
    </rdf:RDF>
  </metadata>
  <g
     inkscape:label="Calque 1"
     inkscape:groupmode="layer"
     id="layer1"
     transform="translate(235.0511,-525.6023)">
    <g
       transform="matrix(0.398102,0,0,0.398102,-254.9252,516.1353)"
       id="g2295"
       inkscape:label="Calque 1">
      <g
         transform="matrix(1.07414,0,0,1.07414,951.6329,-180.9909)"
         id="g3989">
        <path
           style="color:black;fill:#ad4700;fill-opacity:1;fill-rule:nonzero;stroke:none;stroke-width:2.00000048;stroke-linecap:round;stroke-linejoin:round;marker:none;marker-start:none;marker-mid:none;marker-end:none;stroke-miterlimit:4;stroke-dashoffset:0;stroke-opacity:1;visibility:visible;display:inline;overflow:visible"
           d="M -651.99291,193.24698 C -552.37225,191.12297 -467.99565,263.31498 -468.20504,304.29416 C -468.40933,344.27597 -546.87273,413.45744 -648.83238,413.45744 C -750.07777,413.45744 -835.53045,339.41561 -836.90596,302.41025 C -838.28147,265.4049 -751.61356,195.37099 -651.99291,193.24698 z "
           id="path1927"
           sodipodi:nodetypes="czzzz" />
        <path
           style="color:black;fill:none;fill-opacity:1;fill-rule:nonzero;stroke:#722e00;stroke-width:2.00000095;stroke-linecap:round;stroke-linejoin:round;marker:none;marker-start:none;marker-mid:none;marker-end:none;stroke-miterlimit:4;stroke-dashoffset:0;stroke-opacity:1;visibility:visible;display:inline;overflow:visible"
           d="M -652.21246,236.21754 C -561.58233,232.44973 -469.44695,265.56211 -468.205,304.29172 C -466.96306,343.02132 -569.05552,377.00807 -652.91685,374.0744 C -737.78832,371.13557 -836.87004,325.79421 -836.90595,302.4078 C -836.94189,278.99288 -742.84259,239.98536 -652.21246,236.21754 z "
           id="path2817"
           sodipodi:nodetypes="czzzz" />
        <path
           style="color:black;fill:url(#linearGradient4057);fill-opacity:1;fill-rule:nonzero;stroke:none;stroke-width:2;stroke-linecap:round;stroke-linejoin:round;marker:none;marker-start:none;marker-mid:none;marker-end:none;stroke-miterlimit:4;stroke-dashoffset:0;stroke-opacity:1;visibility:visible;display:inline;overflow:visible"
           d="M -773.04696,228.90337 C -760.61439,254.55455 -751.93454,315.23498 -772.88482,376.72847 C -762.69547,383.24505 -751.54969,388.94919 -739.88618,394.19596 C -707.11723,330.02314 -721.7801,231.07559 -739.17388,211.97847 C -751.12012,216.84157 -762.15126,222.36448 -773.04696,228.90337 z "
           id="rect2819"
           sodipodi:nodetypes="ccccc" />
        <path
           style="opacity:1;color:black;fill:url(#linearGradient3857);fill-opacity:1;fill-rule:nonzero;stroke:none;stroke-width:2;stroke-linecap:round;stroke-linejoin:round;marker:none;marker-start:none;marker-mid:none;marker-end:none;stroke-miterlimit:4;stroke-dasharray:none;stroke-dashoffset:0;stroke-opacity:1;visibility:visible;display:inline;overflow:visible"
           d="M -565.63114,398.65403 C -551.46376,392.64636 -538.16324,385.61557 -526.21265,378.01142 C -497.19597,332.34209 -504.77694,270.69794 -524.02188,231.35113 C -536.0442,223.26939 -549.62871,215.85698 -564.38088,209.76963 C -544.32121,242.2152 -533.49,342.97949 -565.63114,398.65403 z "
           id="path2832"
           sodipodi:nodetypes="ccccc" />
        <path
           style="fill:none;fill-rule:evenodd;stroke:#ececec;stroke-width:10.00000095;stroke-linecap:round;stroke-linejoin:miter;stroke-miterlimit:4;stroke-dasharray:none;stroke-opacity:1"
           d="M -702.4335,241.72978 C -672.15821,234.92561 -621.39634,234.23003 -589.91341,239.27421"
           id="path3729"
           sodipodi:nodetypes="cc" />
        <path
           style="fill:none;fill-opacity:1;fill-rule:evenodd;stroke:#722e00;stroke-width:1.10000002;stroke-linecap:round;stroke-linejoin:miter;stroke-miterlimit:4;stroke-dasharray:none;stroke-opacity:1"
           d="M -702.4335,241.72978 C -672.15821,234.92561 -621.39634,234.23003 -589.91341,239.27421"
           id="path3731"
           sodipodi:nodetypes="cc" />
        <path
           transform="matrix(9.367462e-3,-1.833309,1.833309,9.367462e-3,-1167.032,-853.0964)"
           d="M -599.27302 260.15005 A 2.5253813 3.0304577 0 1 1  -604.32378,260.15005 A 2.5253813 3.0304577 0 1 1  -599.27302 260.15005 z"
           sodipodi:ry="3.0304577"
           sodipodi:rx="2.5253813"
           sodipodi:cy="260.15005"
           sodipodi:cx="-601.7984"
           id="path3757"
           style="opacity:1;color:black;fill:url(#radialGradient3759);fill-opacity:1;fill-rule:nonzero;stroke:none;stroke-width:4.9000001;stroke-linecap:round;stroke-linejoin:round;marker:none;marker-start:none;marker-mid:none;marker-end:none;stroke-miterlimit:4;stroke-dasharray:none;stroke-dashoffset:0;stroke-opacity:1;visibility:visible;display:inline;overflow:visible"
           sodipodi:type="arc" />
        <path
           transform="matrix(9.367462e-3,-1.833309,1.833309,9.367462e-3,-1168.808,-876.0868)"
           d="M -599.27302 260.15005 A 2.5253813 3.0304577 0 1 1  -604.32378,260.15005 A 2.5253813 3.0304577 0 1 1  -599.27302 260.15005 z"
           sodipodi:ry="3.0304577"
           sodipodi:rx="2.5253813"
           sodipodi:cy="260.15005"
           sodipodi:cx="-601.7984"
           id="path3761"
           style="opacity:1;color:black;fill:url(#radialGradient3763);fill-opacity:1;fill-rule:nonzero;stroke:none;stroke-width:4.9000001;stroke-linecap:round;stroke-linejoin:round;marker:none;marker-start:none;marker-mid:none;marker-end:none;stroke-miterlimit:4;stroke-dasharray:none;stroke-dashoffset:0;stroke-opacity:1;visibility:visible;display:inline;overflow:visible"
           sodipodi:type="arc" />
        <path
           transform="matrix(9.367462e-3,-1.833309,1.833309,9.367462e-3,-1155.792,-878.0406)"
           d="M -599.27302 260.15005 A 2.5253813 3.0304577 0 1 1  -604.32378,260.15005 A 2.5253813 3.0304577 0 1 1  -599.27302 260.15005 z"
           sodipodi:ry="3.0304577"
           sodipodi:rx="2.5253813"
           sodipodi:cy="260.15005"
           sodipodi:cx="-601.7984"
           id="path3765"
           style="opacity:1;color:black;fill:url(#radialGradient3767);fill-opacity:1;fill-rule:nonzero;stroke:none;stroke-width:4.9000001;stroke-linecap:round;stroke-linejoin:round;marker:none;marker-start:none;marker-mid:none;marker-end:none;stroke-miterlimit:4;stroke-dasharray:none;stroke-dashoffset:0;stroke-opacity:1;visibility:visible;display:inline;overflow:visible"
           sodipodi:type="arc" />
        <path
           transform="matrix(9.367462e-3,-1.833309,1.833309,9.367462e-3,-1151.867,-855.418)"
           d="M -599.27302 260.15005 A 2.5253813 3.0304577 0 1 1  -604.32378,260.15005 A 2.5253813 3.0304577 0 1 1  -599.27302 260.15005 z"
           sodipodi:ry="3.0304577"
           sodipodi:rx="2.5253813"
           sodipodi:cy="260.15005"
           sodipodi:cx="-601.7984"
           id="path3769"
           style="opacity:1;color:black;fill:url(#radialGradient3771);fill-opacity:1;fill-rule:nonzero;stroke:none;stroke-width:4.9000001;stroke-linecap:round;stroke-linejoin:round;marker:none;marker-start:none;marker-mid:none;marker-end:none;stroke-miterlimit:4;stroke-dasharray:none;stroke-dashoffset:0;stroke-opacity:1;visibility:visible;display:inline;overflow:visible"
           sodipodi:type="arc" />
        <path
           transform="matrix(9.367462e-3,-1.833309,1.833309,9.367462e-3,-1135.954,-856.0943)"
           d="M -599.27302 260.15005 A 2.5253813 3.0304577 0 1 1  -604.32378,260.15005 A 2.5253813 3.0304577 0 1 1  -599.27302 260.15005 z"
           sodipodi:ry="3.0304577"
           sodipodi:rx="2.5253813"
           sodipodi:cy="260.15005"
           sodipodi:cx="-601.7984"
           id="path3773"
           style="opacity:1;color:black;fill:url(#radialGradient3775);fill-opacity:1;fill-rule:nonzero;stroke:none;stroke-width:4.9000001;stroke-linecap:round;stroke-linejoin:round;marker:none;marker-start:none;marker-mid:none;marker-end:none;stroke-miterlimit:4;stroke-dasharray:none;stroke-dashoffset:0;stroke-opacity:1;visibility:visible;display:inline;overflow:visible"
           sodipodi:type="arc" />
        <path
           transform="matrix(9.367462e-3,-1.833309,1.833309,9.367462e-3,-1139.5,-878.715)"
           d="M -599.27302 260.15005 A 2.5253813 3.0304577 0 1 1  -604.32378,260.15005 A 2.5253813 3.0304577 0 1 1  -599.27302 260.15005 z"
           sodipodi:ry="3.0304577"
           sodipodi:rx="2.5253813"
           sodipodi:cy="260.15005"
           sodipodi:cx="-601.7984"
           id="path3777"
           style="opacity:1;color:black;fill:url(#radialGradient3779);fill-opacity:1;fill-rule:nonzero;stroke:none;stroke-width:4.9000001;stroke-linecap:round;stroke-linejoin:round;marker:none;marker-start:none;marker-mid:none;marker-end:none;stroke-miterlimit:4;stroke-dasharray:none;stroke-dashoffset:0;stroke-opacity:1;visibility:visible;display:inline;overflow:visible"
           sodipodi:type="arc" />
        <path
           transform="matrix(9.367462e-3,-1.833309,1.833309,9.367462e-3,-1122.826,-879.8925)"
           d="M -599.27302 260.15005 A 2.5253813 3.0304577 0 1 1  -604.32378,260.15005 A 2.5253813 3.0304577 0 1 1  -599.27302 260.15005 z"
           sodipodi:ry="3.0304577"
           sodipodi:rx="2.5253813"
           sodipodi:cy="260.15005"
           sodipodi:cx="-601.7984"
           id="path3781"
           style="opacity:1;color:black;fill:url(#radialGradient3783);fill-opacity:1;fill-rule:nonzero;stroke:none;stroke-width:4.9000001;stroke-linecap:round;stroke-linejoin:round;marker:none;marker-start:none;marker-mid:none;marker-end:none;stroke-miterlimit:4;stroke-dasharray:none;stroke-dashoffset:0;stroke-opacity:1;visibility:visible;display:inline;overflow:visible"
           sodipodi:type="arc" />
        <path
           transform="matrix(9.367462e-3,-1.833309,1.833309,9.367462e-3,-1120.036,-857.5283)"
           d="M -599.27302 260.15005 A 2.5253813 3.0304577 0 1 1  -604.32378,260.15005 A 2.5253813 3.0304577 0 1 1  -599.27302 260.15005 z"
           sodipodi:ry="3.0304577"
           sodipodi:rx="2.5253813"
           sodipodi:cy="260.15005"
           sodipodi:cx="-601.7984"
           id="path3785"
           style="opacity:1;color:black;fill:url(#radialGradient3787);fill-opacity:1;fill-rule:nonzero;stroke:none;stroke-width:4.9000001;stroke-linecap:round;stroke-linejoin:round;marker:none;marker-start:none;marker-mid:none;marker-end:none;stroke-miterlimit:4;stroke-dasharray:none;stroke-dashoffset:0;stroke-opacity:1;visibility:visible;display:inline;overflow:visible"
           sodipodi:type="arc" />
        <path
           transform="matrix(9.367462e-3,-1.833309,1.833309,9.367462e-3,-1104.003,-856.9413)"
           d="M -599.27302 260.15005 A 2.5253813 3.0304577 0 1 1  -604.32378,260.15005 A 2.5253813 3.0304577 0 1 1  -599.27302 260.15005 z"
           sodipodi:ry="3.0304577"
           sodipodi:rx="2.5253813"
           sodipodi:cy="260.15005"
           sodipodi:cx="-601.7984"
           id="path3789"
           style="opacity:1;color:black;fill:url(#radialGradient3791);fill-opacity:1;fill-rule:nonzero;stroke:none;stroke-width:4.9000001;stroke-linecap:round;stroke-linejoin:round;marker:none;marker-start:none;marker-mid:none;marker-end:none;stroke-miterlimit:4;stroke-dasharray:none;stroke-dashoffset:0;stroke-opacity:1;visibility:visible;display:inline;overflow:visible"
           sodipodi:type="arc" />
        <path
           transform="matrix(9.367462e-3,-1.833309,1.833309,9.367462e-3,-1105.781,-879.5529)"
           d="M -599.27302 260.15005 A 2.5253813 3.0304577 0 1 1  -604.32378,260.15005 A 2.5253813 3.0304577 0 1 1  -599.27302 260.15005 z"
           sodipodi:ry="3.0304577"
           sodipodi:rx="2.5253813"
           sodipodi:cy="260.15005"
           sodipodi:cx="-601.7984"
           id="path3793"
           style="opacity:1;color:black;fill:url(#radialGradient3795);fill-opacity:1;fill-rule:nonzero;stroke:none;stroke-width:4.9000001;stroke-linecap:round;stroke-linejoin:round;marker:none;marker-start:none;marker-mid:none;marker-end:none;stroke-miterlimit:4;stroke-dasharray:none;stroke-dashoffset:0;stroke-opacity:1;visibility:visible;display:inline;overflow:visible"
           sodipodi:type="arc" />
        <path
           transform="matrix(9.367462e-3,-1.833309,1.833309,9.367462e-3,-1105.654,-879.8047)"
           d="M -599.27302 260.15005 A 2.5253813 3.0304577 0 1 1  -604.32378,260.15005 A 2.5253813 3.0304577 0 1 1  -599.27302 260.15005 z"
           sodipodi:ry="3.0304577"
           sodipodi:rx="2.5253813"
           sodipodi:cy="260.15005"
           sodipodi:cx="-601.7984"
           id="path3797"
           style="opacity:1;color:black;fill:url(#radialGradient3799);fill-opacity:1;fill-rule:nonzero;stroke:none;stroke-width:4.9000001;stroke-linecap:round;stroke-linejoin:round;marker:none;marker-start:none;marker-mid:none;marker-end:none;stroke-miterlimit:4;stroke-dasharray:none;stroke-dashoffset:0;stroke-opacity:1;visibility:visible;display:inline;overflow:visible"
           sodipodi:type="arc" />
        <path
           transform="matrix(9.367462e-3,-1.833309,1.833309,9.367462e-3,-1088.486,-878.8332)"
           d="M -599.27302 260.15005 A 2.5253813 3.0304577 0 1 1  -604.32378,260.15005 A 2.5253813 3.0304577 0 1 1  -599.27302 260.15005 z"
           sodipodi:ry="3.0304577"
           sodipodi:rx="2.5253813"
           sodipodi:cy="260.15005"
           sodipodi:cx="-601.7984"
           id="path3801"
           style="opacity:1;color:black;fill:url(#radialGradient3803);fill-opacity:1;fill-rule:nonzero;stroke:none;stroke-width:4.9000001;stroke-linecap:round;stroke-linejoin:round;marker:none;marker-start:none;marker-mid:none;marker-end:none;stroke-miterlimit:4;stroke-dasharray:none;stroke-dashoffset:0;stroke-opacity:1;visibility:visible;display:inline;overflow:visible"
           sodipodi:type="arc" />
        <path
           transform="matrix(9.367462e-3,-1.833309,1.833309,9.367462e-3,-1088.475,-856.357)"
           d="M -599.27302 260.15005 A 2.5253813 3.0304577 0 1 1  -604.32378,260.15005 A 2.5253813 3.0304577 0 1 1  -599.27302 260.15005 z"
           sodipodi:ry="3.0304577"
           sodipodi:rx="2.5253813"
           sodipodi:cy="260.15005"
           sodipodi:cx="-601.7984"
           id="path3805"
           style="opacity:1;color:black;fill:url(#radialGradient3807);fill-opacity:1;fill-rule:nonzero;stroke:none;stroke-width:4.9000001;stroke-linecap:round;stroke-linejoin:round;marker:none;marker-start:none;marker-mid:none;marker-end:none;stroke-miterlimit:4;stroke-dasharray:none;stroke-dashoffset:0;stroke-opacity:1;visibility:visible;display:inline;overflow:visible"
           sodipodi:type="arc" />
        <path
           transform="matrix(9.367462e-3,-1.833309,1.833309,9.367462e-3,-1070.802,-855.3827)"
           d="M -599.27302 260.15005 A 2.5253813 3.0304577 0 1 1  -604.32378,260.15005 A 2.5253813 3.0304577 0 1 1  -599.27302 260.15005 z"
           sodipodi:ry="3.0304577"
           sodipodi:rx="2.5253813"
           sodipodi:cy="260.15005"
           sodipodi:cx="-601.7984"
           id="path3809"
           style="opacity:1;color:black;fill:url(#radialGradient3811);fill-opacity:1;fill-rule:nonzero;stroke:none;stroke-width:4.9000001;stroke-linecap:round;stroke-linejoin:round;marker:none;marker-start:none;marker-mid:none;marker-end:none;stroke-miterlimit:4;stroke-dasharray:none;stroke-dashoffset:0;stroke-opacity:1;visibility:visible;display:inline;overflow:visible"
           sodipodi:type="arc" />
        <path
           sodipodi:type="arc"
           style="opacity:1;color:black;fill:url(#radialGradient3755);fill-opacity:1;fill-rule:nonzero;stroke:none;stroke-width:4.9000001;stroke-linecap:round;stroke-linejoin:round;marker:none;marker-start:none;marker-mid:none;marker-end:none;stroke-miterlimit:4;stroke-dasharray:none;stroke-dashoffset:0;stroke-opacity:1;visibility:visible;display:inline;overflow:visible"
           id="path3747"
           sodipodi:cx="-601.7984"
           sodipodi:cy="260.15005"
           sodipodi:rx="2.5253813"
           sodipodi:ry="3.0304577"
           d="M -599.27302 260.15005 A 2.5253813 3.0304577 0 1 1  -604.32378,260.15005 A 2.5253813 3.0304577 0 1 1  -599.27302 260.15005 z"
           transform="matrix(9.367462e-3,-1.833309,1.833309,9.367462e-3,-1071.45,-876.852)" />
        <path
           transform="matrix(-8.623221e-2,-0.841371,0.999987,5.109526e-3,-1024.24,-253.4209)"
           sodipodi:open="true"
           sodipodi:end="9.7207341"
           sodipodi:start="5.8925783"
           d="M -572.31596,276.19311 A 14.268405,4.2931485 0 1 1 -599.15771,276.57561"
           sodipodi:ry="4.2931485"
           sodipodi:rx="14.268405"
           sodipodi:cy="277.82773"
           sodipodi:cx="-585.50964"
           id="path3735"
           style="opacity:1;color:black;fill:none;fill-opacity:1;fill-rule:nonzero;stroke:white;stroke-width:5.34341764;stroke-linecap:round;stroke-linejoin:round;marker:none;marker-start:none;marker-mid:none;marker-end:none;stroke-miterlimit:4;stroke-dasharray:none;stroke-dashoffset:0;stroke-opacity:1;visibility:visible;display:inline;overflow:visible"
           sodipodi:type="arc" />
        <path
           transform="matrix(-0.144958,-0.841671,0.999987,5.109526e-3,-1043.971,-255.037)"
           sodipodi:open="true"
           sodipodi:end="9.7207341"
           sodipodi:start="5.8925783"
           d="M -572.31596,276.19311 A 14.268405,4.2931485 0 1 1 -599.15771,276.57561"
           sodipodi:ry="4.2931485"
           sodipodi:rx="14.268405"
           sodipodi:cy="277.82773"
           sodipodi:cx="-585.50964"
           id="path3737"
           style="opacity:1;color:black;fill:none;fill-opacity:1;fill-rule:nonzero;stroke:white;stroke-width:5.34341764;stroke-linecap:round;stroke-linejoin:round;marker:none;marker-start:none;marker-mid:none;marker-end:none;stroke-miterlimit:4;stroke-dasharray:none;stroke-dashoffset:0;stroke-opacity:1;visibility:visible;display:inline;overflow:visible"
           sodipodi:type="arc" />
        <path
           transform="matrix(-0.144958,-0.841671,0.999987,5.109526e-3,-1028.56,-256.2209)"
           sodipodi:open="true"
           sodipodi:end="9.7207341"
           sodipodi:start="5.8925783"
           d="M -572.31596,276.19311 A 14.268405,4.2931485 0 1 1 -599.15771,276.57561"
           sodipodi:ry="4.2931485"
           sodipodi:rx="14.268405"
           sodipodi:cy="277.82773"
           sodipodi:cx="-585.50964"
           id="path3739"
           style="opacity:1;color:black;fill:none;fill-opacity:1;fill-rule:nonzero;stroke:white;stroke-width:5.34341764;stroke-linecap:round;stroke-linejoin:round;marker:none;marker-start:none;marker-mid:none;marker-end:none;stroke-miterlimit:4;stroke-dasharray:none;stroke-dashoffset:0;stroke-opacity:1;visibility:visible;display:inline;overflow:visible"
           sodipodi:type="arc" />
        <path
           transform="matrix(-8.623197e-2,-0.841371,0.999987,5.109526e-3,-978.0069,-256.9728)"
           sodipodi:open="true"
           sodipodi:end="9.7207341"
           sodipodi:start="5.8925783"
           d="M -572.31596,276.19311 A 14.268405,4.2931485 0 1 1 -599.15771,276.57561"
           sodipodi:ry="4.2931485"
           sodipodi:rx="14.268405"
           sodipodi:cy="277.82773"
           sodipodi:cx="-585.50964"
           id="path3741"
           style="opacity:1;color:black;fill:none;fill-opacity:1;fill-rule:nonzero;stroke:white;stroke-width:5.34341764;stroke-linecap:round;stroke-linejoin:round;marker:none;marker-start:none;marker-mid:none;marker-end:none;stroke-miterlimit:4;stroke-dasharray:none;stroke-dashoffset:0;stroke-opacity:1;visibility:visible;display:inline;overflow:visible"
           sodipodi:type="arc" />
        <path
           transform="matrix(-4.218742e-2,-0.841146,0.999987,5.109526e-3,-935.5489,-257.0084)"
           sodipodi:open="true"
           sodipodi:end="9.7207341"
           sodipodi:start="5.8925783"
           d="M -572.31596,276.19311 A 14.268405,4.2931485 0 1 1 -599.15771,276.57561"
           sodipodi:ry="4.2931485"
           sodipodi:rx="14.268405"
           sodipodi:cy="277.82773"
           sodipodi:cx="-585.50964"
           id="path3743"
           style="opacity:1;color:black;fill:none;fill-opacity:1;fill-rule:nonzero;stroke:white;stroke-width:5.34341764;stroke-linecap:round;stroke-linejoin:round;marker:none;marker-start:none;marker-mid:none;marker-end:none;stroke-miterlimit:4;stroke-dasharray:none;stroke-dashoffset:0;stroke-opacity:1;visibility:visible;display:inline;overflow:visible"
           sodipodi:type="arc" />
        <path
           transform="matrix(1.653897e-2,-0.840845,0.999987,5.109526e-3,-884.7535,-255.7387)"
           sodipodi:open="true"
           sodipodi:end="9.7207341"
           sodipodi:start="5.8925783"
           d="M -572.31596,276.19311 A 14.268405,4.2931485 0 1 1 -599.15771,276.57561"
           sodipodi:ry="4.2931485"
           sodipodi:rx="14.268405"
           sodipodi:cy="277.82773"
           sodipodi:cx="-585.50964"
           id="path3745"
           style="opacity:1;color:black;fill:none;fill-opacity:1;fill-rule:nonzero;stroke:white;stroke-width:5.34341764;stroke-linecap:round;stroke-linejoin:round;marker:none;marker-start:none;marker-mid:none;marker-end:none;stroke-miterlimit:4;stroke-dasharray:none;stroke-dashoffset:0;stroke-opacity:1;visibility:visible;display:inline;overflow:visible"
           sodipodi:type="arc" />
        <path
           sodipodi:type="arc"
           style="opacity:1;color:black;fill:none;fill-opacity:1;fill-rule:nonzero;stroke:white;stroke-width:5.34341764;stroke-linecap:round;stroke-linejoin:round;marker:none;marker-start:none;marker-mid:none;marker-end:none;stroke-miterlimit:4;stroke-dasharray:none;stroke-dashoffset:0;stroke-opacity:1;visibility:visible;display:inline;overflow:visible"
           id="path3733"
           sodipodi:cx="-585.50964"
           sodipodi:cy="277.82773"
           sodipodi:rx="14.268405"
           sodipodi:ry="4.2931485"
           d="M -572.31596,276.19311 A 14.268405,4.2931485 0 1 1 -599.15771,276.57561"
           sodipodi:start="5.8925783"
           sodipodi:end="9.7207341"
           sodipodi:open="true"
           transform="matrix(1.653897e-2,-0.840845,0.999987,5.109526e-3,-867.5862,-254.6408)" />
        <g
           id="g3847"
           transform="matrix(0.593774,-1.782238e-2,1.782238e-2,0.593774,-634.5223,188.0997)" />
        <path
           style="color:black;fill:none;fill-opacity:1;fill-rule:nonzero;stroke:black;stroke-width:5.0999999;stroke-linecap:round;stroke-linejoin:round;marker:none;marker-start:none;marker-mid:none;marker-end:none;stroke-miterlimit:4;stroke-dasharray:none;stroke-dashoffset:0;stroke-opacity:1;visibility:visible;display:inline;overflow:visible"
           d="M -647.34375,193.1875 C -648.89262,193.1848 -650.44343,193.21681 -652,193.25 C -683.07062,193.91246 -712.88376,201.18805 -739.15625,212 C -739.16571,211.98956 -739.17804,211.97914 -739.1875,211.96875 C -751.13373,216.83185 -762.1668,222.36736 -773.0625,228.90625 C -773.0585,228.9145 -773.0665,228.92924 -773.0625,228.9375 C -812.33388,252.36678 -837.65451,282.27594 -836.90625,302.40625 C -836.90561,302.82247 -836.87525,303.25774 -836.8125,303.6875 C -835.08829,323.51496 -810.48606,353.16982 -772.84375,376.65625 C -772.85122,376.67821 -772.86752,376.69679 -772.875,376.71875 C -762.68564,383.23531 -751.53851,388.94073 -739.875,394.1875 C -739.83902,394.11705 -739.81711,394.03929 -739.78125,393.96875 C -712.65004,405.70094 -681.58909,413.46875 -648.84375,413.46875 C -618.28927,413.46875 -589.82938,407.24663 -564.96875,397.46875 C -565.18905,397.86196 -565.40051,398.2674 -565.625,398.65625 C -551.4576,392.64859 -538.16934,385.60415 -526.21875,378 C -526.13363,377.86603 -526.05324,377.728 -525.96875,377.59375 C -493.23492,356.58522 -472.06242,330.23016 -468.6875,309.71875 C -468.30413,307.92746 -468.16053,306.0967 -468.21875,304.28125 C -468.11288,283.56133 -489.63251,254.88195 -523.8125,231.84375 C -523.89113,231.68144 -523.95223,231.50531 -524.03125,231.34375 C -536.0536,223.262 -549.62283,215.8686 -564.375,209.78125 C -564.2736,209.94527 -564.16343,210.11376 -564.0625,210.28125 C -589.07489,199.91572 -617.46607,193.23952 -647.34375,193.1875 z "
           id="path3924" />
      </g>
      <g
         transform="matrix(0.482912,0,0,0.482912,88.46681,-31.09697)"
         id="g1957">
        <path
           style="font-size:189.93281555px;font-style:normal;font-weight:normal;fill:#803400;fill-opacity:1;fill-rule:nonzero;stroke:none;stroke-width:0.99999988px;stroke-linecap:butt;stroke-linejoin:miter;stroke-opacity:1;font-family:Bitstream Vera Sans"
           d="M 260.0625,300.90625 C 240.24017,302.34652 220.04793,305.53113 202.03125,314.21875 C 193.38784,322.44875 185.7589,334.42894 187.84375,346.875 C 191.34852,355.55913 202.86444,354.82939 209.875,351.40625 C 217.74709,349.15609 229.37449,347.91076 232,338.78125 C 230.57752,336.24551 237.43526,336.13748 236.84375,336.375 C 231.81234,340.88501 228.79704,347.95377 223.3125,351.59375 C 215.28365,352.53456 204.03081,351.39012 200.0625,360.25 C 198.08551,367.13667 203.42887,373.76462 209.5,376.25 C 202.90678,387.23629 197.82102,402.607 206.25,414 C 218.05655,429.69522 241.00826,430.51252 258.375,424.875 C 272.22678,420.64361 287.59049,413.36747 293.3125,399.28125 C 300.26822,411.70685 311.84746,423.90296 326.84375,424.875 C 334.81911,424.90877 341.48325,418.69973 345.28125,412.8125 C 352.93062,421.31685 365.93905,428.60498 377.03125,422.3125 C 382.1154,419.57349 385.38078,414.50067 387.65625,409.34375 C 397.10883,418.45801 410.9853,427.52288 424.5625,422.0625 C 431.0942,418.9696 434.70515,411.6765 435.6875,404.71875 C 442.29072,414.66812 455.56578,423.18447 467.53125,417.3125 C 477.71198,412.10364 481.39468,400.23942 484.25,390.0625 C 486.69547,390.30659 490.16784,387.87396 491.6875,388.71875 C 492.94903,399.91421 498.63552,413.50539 510.875,415.9375 C 517.52904,416.74601 523.15827,410.84606 523.09375,404.34375 C 523.76904,400.54824 524.45009,399.11481 525.34375,403.4375 C 528.91998,414.15658 542.18867,422.69632 552.90625,416.34375 C 560.47243,411.00436 564.32665,401.90411 568.96875,394.21875 C 570.52597,389.48447 566.0394,385.55932 563.96875,381.8125 C 560.75775,377.40368 554.73542,380.35341 553.15329,384.60711 C 551.48793,386.60605 548.86548,390.96549 546.59375,390.71875 C 545.40963,381.47445 556.02904,372.75169 550.0625,363.75 C 545.65193,357.92276 539.34912,349.93879 531.03125,352.4375 C 524.35252,354.23471 520.2995,361.04596 516.0625,365.25 C 511.01862,354.63465 492.48293,354.83029 488.875,366.59375 C 487.19896,367.88431 484.07305,369.34388 482.21875,369.3125 C 475.34417,352.28981 450.31615,346.93283 437.03125,359.75 C 432.73532,363.50279 429.50406,368.52504 428.15625,374.09375 C 422.66347,365.5255 415.04028,358.80737 409.5625,350.375 C 403.76607,344.29339 390.21661,345.0828 388.8125,354.59375 C 388.77554,358.63491 390.64565,363.22888 387.03125,366.3125 C 380.96656,377.81595 377.15497,391.35231 367.21875,400.09375 C 361.95249,399.09226 356.10319,393.19806 357.59375,387.6875 C 367.63111,367.72941 370.72653,340.85433 356.15625,322.3125 C 350.68903,314.4172 338.39736,317.81902 334.75,325.75 C 326.25372,339.94861 325.95622,357.60736 327.375,373.71875 C 327.88778,380.58108 330.82252,387.45224 332.125,393.75 C 329.2942,398.52317 321.08159,401.99849 317.4375,396.46875 C 316.33571,391.71528 322.05969,388.95235 322.625,384.375 C 325.47369,377.62719 324.80307,368.69046 320.375,363.40625 C 329.77437,358.29644 327.17218,343.35737 318.3125,338.9375 C 314.36006,335.99762 307.99208,335.93055 304.15625,337.125 C 307.94433,321.36779 295.03801,306.05437 279.94554,303.06621 C 273.5259,301.20021 266.74539,300.74401 260.0625,300.90625 z M 265.46875,331.96875 C 270.37085,332.54144 277.37366,331.62006 280.375,336.21875 C 279.72711,341.14217 272.91947,341.72038 269.21875,343.5 C 266.3505,344.51443 263.31228,345.26921 260.34375,345.8125 C 263.56127,342.11527 266.81565,337.00834 264.9375,331.9375 L 265.46875,331.96875 z M 297.375,348.4375 C 296.97883,352.9197 300.66113,357.6387 302.53125,360.21875 C 294.86969,363.4448 291.19848,372.17943 289.96875,379.65625 C 283.74845,371.39062 273.62348,367.45606 263.875,365.09375 C 276.13983,362.35688 288.81815,357.61488 297.375,348.4375 z M 454.78125,373.25 C 466.59073,373.23181 472.16355,393.40461 460.40625,397.78125 C 452.77589,399.00931 448.7892,389.53703 447.9375,383.375 C 447.09988,378.92345 449.45102,372.88383 454.78125,373.25 z M 403.09375,380.125 C 407.77771,383.94268 414.12525,392.02411 410.1875,397.8125 C 406.5437,394.42188 402.71077,391.10217 398.375,388.625 C 399.95318,385.80109 401.45893,382.88632 403.09375,380.125 z M 238.125,380.4375 C 247.32384,382.48235 258.65811,381.32289 265.75,387.875 C 261.3333,393.26702 253.48492,394.9541 246.9375,396.65625 C 241.61349,397.56901 233.82284,397.73187 230.75,392.5625 C 230.78624,387.6464 235.79531,384.5766 237.53125,380.3125 L 238.125,380.4375 z "
           id="path1951" />
        <path
           style="font-size:189.93281555px;font-style:normal;font-weight:normal;fill:#d7cc62;fill-opacity:1;fill-rule:nonzero;stroke:none;stroke-width:0.99999988px;stroke-linecap:butt;stroke-linejoin:miter;stroke-opacity:1;font-family:Bitstream Vera Sans"
           d="M 261.88284,304.87477 C 260.69612,304.88065 259.54582,304.9019 258.38114,304.94624 C 239.691,306.48317 221.04428,309.94762 204.78365,317.095 C 197.5897,323.69 191.88777,333.06338 191.13415,343.53643 C 191.76945,350.61409 200.6315,350.72722 204.85511,348.75325 C 212.55547,346.11442 222.37371,345.46889 227.79484,339.60595 C 229.32712,336.99028 222.77484,334.35823 228.36654,334.2462 C 244.23982,329.84651 261.93068,324.56828 280.10599,330.31572 C 287.16083,333.43399 284.5205,341.86757 279.39136,343.46497 C 271.19212,348.23318 261.09908,349.77791 251.37773,351.54032 C 254.0111,345.3806 261.66806,340.93768 261.66845,333.74596 C 257.75766,328.66927 250.74995,332.73548 246.66115,334.10327 C 237.44055,338.5257 233.10597,348.5811 226.36557,354.97056 C 219.38096,357.31353 207.86256,354.3413 203.92609,361.25934 C 202.04403,367.43811 209.50329,373.50769 215.57461,373.55103 C 209.95421,384.46358 200.1785,398.201 209.85754,412.35561 C 221.4338,426.0824 240.81731,425.32352 254.30773,421.9317 C 268.91648,417.46992 285.38206,411.09422 290.25378,395.91905 C 293.14463,384.54872 280.87409,373.93421 269.81527,371.04981 C 261.01847,367.99905 250.67522,366.50109 242.58774,364.8325 C 263.0682,361.70417 286.4378,358.18621 297.97182,341.32107 C 304.61658,332.10319 299.26223,315.93682 286.96647,310.16306 C 278.96335,305.85905 270.18985,304.83368 261.88284,304.87477 z M 345.92371,321.59719 C 336.14885,325.24159 334.62455,335.07248 332.34568,343.39351 C 329.69735,358.81625 329.27459,375.78345 337.06226,393.91808 C 332.95301,398.05959 329.55504,405.56472 319.12496,402.6366 C 312.52402,400.13552 312.00905,393.9629 314.33692,391.48832 C 318.37939,384.95422 322.68137,377.516 318.83911,368.04835 C 314.96507,361.84632 305.37837,362.26367 302.18816,364.8325 C 294.81943,370.50969 293.15448,380.1378 293.75548,389.70174 C 296.23765,399.351 304.61171,411.03399 317.05253,418.35853 C 327.39765,423.5928 335.35555,419.38674 338.84884,414.49951 C 341.15531,411.71356 342.71532,408.58057 344.13713,405.28074 C 349.30083,412.44823 359.78428,421.64612 369.43515,420.71682 C 380.38495,418.8298 383.1097,409.79517 386.15756,402.27929 C 424.72914,442.74123 446.29051,405.08792 421.10313,370.90689 C 416.95137,365.1731 409.80831,359.72337 407.5251,353.89861 C 402.22,348.45133 392.78591,350.19412 392.80365,354.97056 C 392.32941,358.35953 395.06788,362.7216 392.08902,365.18982 C 385.34103,378.19921 380.59275,392.78932 370.14978,403.49416 C 366.02423,406.40966 357.65739,400.42954 355.57126,395.99051 C 352.26661,391.61934 352.2416,387.94445 354.64224,385.12809 C 360.86202,370.15116 365.7588,353.3436 358.50126,333.81742 C 356.64262,330.48348 353.23611,320.97646 345.92371,321.59719 z M 309.26303,340.24912 C 308.76367,340.23133 308.29954,340.27558 307.83376,340.32058 C 301.04321,341.61797 299.60756,348.694 303.54596,354.97056 C 308.1423,361.09624 319.14051,362.38528 320.84008,357.68617 C 323.74584,353.80828 323.05065,345.26312 313.97961,341.32107 C 312.37272,340.65965 310.76106,340.30245 309.26303,340.24912 z M 349.0681,340.74936 L 349.0681,340.89229 C 352.56301,352.42567 350.27506,362.61346 347.35298,371.97884 C 345.40595,360.94172 343.84563,349.0604 349.0681,340.74936 z M 533.80079,355.97105 C 528.1816,356.29306 526.05229,361.19981 522.79544,363.68909 C 515.31701,371.34166 512.13281,381.34103 507.64521,390.70223 C 505.63814,383.7645 509.99468,378.53448 511.71862,372.90786 C 513.90918,370.52762 513.83739,364.89932 507.35936,362.54568 C 497.26552,359.0383 492.93884,365.18801 491.78036,370.62103 C 479.85689,374.07965 480.39471,376.41059 477.05891,367.61957 C 472.80955,361.29046 464.17482,356.3438 453.97626,356.54276 C 453.29632,356.55604 452.59705,356.55394 451.90382,356.61422 C 397.8338,371.79141 466.85271,460.284 480.775,385.98565 C 486.77223,386.97077 495.01288,382.2128 495.71084,381.69785 C 493.69768,389.97229 500.63527,412.71929 512.79057,411.85537 C 519.80095,411.37557 518.02697,404.05462 520.22276,400.13539 C 521.97552,393.62047 524.61847,387.60614 528.51251,382.19809 C 528.30665,390.82217 524.40614,400.58036 535.08713,410.64049 C 541.59505,416.41347 550.10481,414.97984 552.81004,411.35513 C 558.17038,405.67989 561.69358,398.84898 565.60197,392.27442 C 562.93528,388.80501 560.16973,379.24589 557.74101,385.62833 C 553.64983,388.99541 552.03741,394.8433 545.23492,395.91905 C 541.80903,394.08017 542.62549,390.20043 542.59078,388.12955 C 542.83515,381.04837 547.61393,375.85654 548.16492,368.97738 C 546.29155,364.5536 541.96028,359.22255 536.30201,356.18544 C 535.82678,356.10922 535.37863,355.99383 534.9442,355.97105 C 534.53692,355.94969 534.1754,355.94958 533.80079,355.97105 z M 454.61943,369.26323 C 469.39647,368.60675 477.9929,393.51294 463.40942,400.92148 C 447.92955,408.78533 435.05705,374.30365 451.61797,369.76347 C 452.65301,369.47965 453.63431,369.307 454.61943,369.26323 z M 401.6651,373.97981 C 412.82228,381.76778 420.97923,394.29927 411.0268,403.49416 C 406.63362,400.29107 397.97501,391.48771 392.66073,390.63076 C 395.72388,385.10046 398.87227,379.63943 401.6651,373.97981 z M 236.22751,375.83786 C 236.46175,375.83282 236.71664,375.92581 237.0136,376.05225 C 247.76457,378.52028 260.13159,377.6302 269.67234,384.9137 C 271.96388,391.18671 264.33592,394.10358 260.38211,396.63368 C 251.52297,400.1637 239.35623,404.37626 229.15264,397.41978 C 222.32372,391.09773 231.01361,384.34243 233.15458,379.62541 C 234.28988,378.7974 234.58783,375.87312 236.22751,375.83786 z "
           id="path1926" />
      </g>
    </g>
  </g>
</svg>
