<?xml version="1.0" encoding="UTF-8" standalone="no"?>
<!-- Created with Inkscape (http://www.inkscape.org/) -->

<svg
   xmlns:dc="http://purl.org/dc/elements/1.1/"
   xmlns:cc="http://creativecommons.org/ns#"
   xmlns:rdf="http://www.w3.org/1999/02/22-rdf-syntax-ns#"
   xmlns:svg="http://www.w3.org/2000/svg"
   xmlns="http://www.w3.org/2000/svg"
   xmlns:sodipodi="http://sodipodi.sourceforge.net/DTD/sodipodi-0.dtd"
   xmlns:inkscape="http://www.inkscape.org/namespaces/inkscape"
   width="673.53418"
   height="274.11371"
   id="svg3908"
   version="1.1"
   inkscape:version="0.48.3.1 r9886"
   sodipodi:docname="Nouveau document 8">
  <defs
     id="defs3910" />
  <sodipodi:namedview
     id="base"
     pagecolor="#ffffff"
     bordercolor="#666666"
     borderopacity="1.0"
     inkscape:pageopacity="0.0"
     inkscape:pageshadow="2"
     inkscape:zoom="0.7"
     inkscape:cx="588.25144"
     inkscape:cy="126.67002"
     inkscape:document-units="px"
     inkscape:current-layer="layer1"
     showgrid="false"
     fit-margin-top="0"
     fit-margin-left="0"
     fit-margin-right="0"
     fit-margin-bottom="0"
     inkscape:window-width="1366"
     inkscape:window-height="718"
     inkscape:window-x="0"
     inkscape:window-y="25"
     inkscape:window-maximized="1" />
  <metadata
     id="metadata3913">
    <rdf:RDF>
      <cc:Work
         rdf:about="">
        <dc:format>image/svg+xml</dc:format>
        <dc:type
           rdf:resource="http://purl.org/dc/dcmitype/StillImage" />
        <dc:title></dc:title>
      </cc:Work>
    </rdf:RDF>
  </metadata>
  <g
     inkscape:label="Calque 1"
     inkscape:groupmode="layer"
     id="layer1"
     transform="translate(-42.979116,-376.50327)">
    <path
       style="fill:#6b7ac9;fill-opacity:1;stroke:#000000;stroke-width:5;stroke-linecap:butt;stroke-linejoin:round;stroke-miterlimit:4;stroke-opacity:1;stroke-dasharray:none"
       d="m 507.14286,640.93361 -254.28572,0 c 0,0 -5.71713,-84.36574 -87.14286,-81.42857 -76.395806,2.75573 -94.285709,80 -94.285709,80 l -22.857142,0 c 0,0 -22.857143,-131.42857 55.714281,-151.42857 78.57143,-20 109.23551,-7.94744 140.00001,-25 25.91451,-14.36425 63.69262,-65.35377 106.75875,-74.24794 119.61185,-24.70267 251.81267,4.96222 251.81267,4.96222 0,0 87.14286,11.42858 102.85715,135.71429 C 721.42857,653.79075 710,648.07647 710,648.07647 l -20,0 c 0,0 -1.42857,-92.85714 -84.28571,-92.85714 -82.85715,0 -98.57143,85.71428 -98.57143,85.71428 z"
       id="path4016"
       inkscape:connector-curvature="0"
       sodipodi:nodetypes="ccsccssscsccsc" />
    <path
       style="fill:none;stroke:#000000;stroke-width:5;stroke-linecap:butt;stroke-linejoin:round;stroke-miterlimit:4;stroke-opacity:1;stroke-dasharray:none"
       d="m 58.571429,528.07647 c 0,0 45.714281,12.85714 48.571431,-42.85714"
       id="path4526"
       inkscape:connector-curvature="0" />
    <path
       style="fill:#b9b905;fill-opacity:1;fill-rule:nonzero;stroke:none"
       d="m 65.71656,521.41142 c 5.644798,-9.81187 16.309675,-19.82469 26.597909,-24.97168 5.56875,-2.78593 10.405681,-4.78465 10.748751,-4.44159 1.05694,1.05694 -3.703823,15.57274 -6.697595,20.4213 -4.686973,7.59078 -12.910034,12.05457 -23.819785,12.9303 l -9.535353,0.76541 2.706073,-4.70374 0,0 z"
       id="path4528"
       inkscape:connector-curvature="0" />
    <path
       style="fill:none;stroke:#000000;stroke-width:5;stroke-linecap:butt;stroke-linejoin:round;stroke-miterlimit:4;stroke-opacity:1;stroke-dasharray:none"
       d="m 271.42857,633.07647 c 0,0 -35.45912,-118.91166 -5.71429,-158.57143 C 307.271,416.74936 344.60785,385.19034 475,395.21932 c 41.72765,-0.53694 8.84015,160.21534 -18.57143,236.42858 z"
       id="path4534"
       inkscape:connector-curvature="0"
       sodipodi:nodetypes="ccccc" />
    <path
       style="fill:none;stroke:#000000;stroke-width:5;stroke-linecap:butt;stroke-linejoin:round;stroke-miterlimit:4;stroke-opacity:1;stroke-dasharray:none"
       d="m 540.71429,473.79076 c 0,0 102.14286,0.71428 122.85714,-5.71429 22.59476,-7.01217 -19.82646,-45.94101 -57.14286,-58.57143 -30.95537,-10.47741 -90.71428,-23.57144 -100,-7.14286 -7.38922,13.07324 0.71429,70.71429 34.28572,71.42858 z"
       id="path4538"
       inkscape:connector-curvature="0"
       sodipodi:nodetypes="csssc" />
    <path
       style="fill:none;stroke:#000000;stroke-width:5;stroke-linecap:butt;stroke-linejoin:round;stroke-miterlimit:4;stroke-opacity:1;stroke-dasharray:none"
       d="m 261.42857,480.93361 c 0,0 55,22.14286 230,1.42857"
       id="path4540"
       inkscape:connector-curvature="0" />
    <path
       style="fill:none;stroke:#000000;stroke-width:5;stroke-linecap:round;stroke-linejoin:round;stroke-miterlimit:4;stroke-opacity:1;stroke-dasharray:none"
       d="m 445,514.50504 27.14286,-2.85714"
       id="path4542"
       inkscape:connector-curvature="0" />
    <path
       style="fill:#b9b905;fill-opacity:1;fill-rule:nonzero;stroke:none"
       d="m 335.57676,487.86936 c -23.70725,-0.78428 -42.03412,-2.67033 -58.66076,-6.03684 -4.98362,-1.00907 -9.47262,-2.06495 -9.97555,-2.3464 -0.65008,-0.3638 0.77579,-2.78249 4.93237,-8.36677 21.66699,-29.10915 39.21949,-45.37388 60.52877,-56.08798 25.70247,-12.92295 55.27673,-18.48459 98.53231,-18.52966 17.24851,-0.018 37.79471,0.8012 45.56586,1.8167 6.0016,0.78426 10.32054,6.6082 13.0674,17.62091 2.59088,10.38739 2.6785,38.56438 0.18732,60.23836 l -0.41685,3.62663 -11.88043,1.24192 c -38.41684,4.01587 -64.29279,5.85292 -96.5233,6.85258 -12.375,0.38382 -24.10714,0.65119 -26.07143,0.59414 -1.96429,-0.0571 -10.64286,-0.33766 -19.28571,-0.62359 l 0,0 z"
       id="path4544"
       inkscape:connector-curvature="0" />
    <path
       style="fill:#c8c85d;fill-opacity:1;fill-rule:nonzero;stroke:none"
       d="m 533.84754,469.5917 c -14.05205,-4.91914 -23.99126,-22.10026 -26.57709,-45.94169 -0.95724,-8.82577 -0.11811,-16.9859 2.05506,-19.98437 5.68854,-7.8489 28.51383,-8.10884 62.10222,-0.70724 34.08488,7.51101 53.69836,15.82875 73.67784,31.24549 12.38317,9.55522 20.68364,19.43511 21.35852,25.42268 0.33825,3.00099 0.21854,3.28167 -1.96657,4.61051 -1.27971,0.77824 -4.33068,1.76395 -6.77993,2.19047 -14.49169,2.52362 -54.74718,4.35561 -94.56733,4.30368 -21.69716,-0.0283 -26.68214,-0.22215 -29.30272,-1.13953 l 0,0 z"
       id="path4546"
       inkscape:connector-curvature="0" />
    <path
       style="fill:#c8c85d;fill-opacity:1;fill-rule:nonzero;stroke:none"
       d="m 332.07676,487.47706 c -23.39299,-1.30937 -39.15867,-3.00589 -53.05142,-5.70878 -13.12924,-2.55435 -12.44658,-2.06826 -9.354,-6.66047 11.19961,-16.63048 30.08906,-37.28912 43.1197,-47.15831 23.18675,-17.56126 51.58397,-27.08509 89.56802,-30.03924 11.98168,-0.93186 51.47557,-0.90904 64.67805,0.0374 8.11183,0.58149 10.8736,1.05215 12.91879,2.20161 8.87951,4.99056 12.50203,24.25317 10.72779,57.04467 -0.43575,8.05357 -0.98693,16.32395 -1.22485,18.37863 -0.40591,3.50554 -0.56968,3.75845 -2.65733,4.10398 -7.65502,1.26699 -55.04194,5.32456 -79.72475,6.82654 -12.53875,0.763 -66.29693,1.46115 -75,0.97401 l 0,0 z"
       id="path4548"
       inkscape:connector-curvature="0" />
    <path
       style="fill:#c8c85d;fill-opacity:1;fill-rule:nonzero;stroke:none"
       d="m 64.219613,525.13077 c 0,-0.37088 1.592536,-3.05537 3.538969,-5.96553 3.755334,-5.61469 12.477876,-14.43083 18.114674,-18.30905 4.145292,-2.85203 14.337034,-7.94801 15.895704,-7.94801 1.41838,0 0.99703,2.27574 -1.89962,10.25989 -5.540056,15.27027 -12.819209,20.5092 -30.828298,22.18768 -2.865004,0.26702 -4.821429,0.17573 -4.821429,-0.22498 z"
       id="path4550"
       inkscape:connector-curvature="0" />
  </g>
</svg>
