<?xml version="1.0" encoding="UTF-8" standalone="no"?>
<!-- Created with Inkscape (http://www.inkscape.org/) -->
<svg
   xmlns:dc="http://purl.org/dc/elements/1.1/"
   xmlns:cc="http://web.resource.org/cc/"
   xmlns:rdf="http://www.w3.org/1999/02/22-rdf-syntax-ns#"
   xmlns:svg="http://www.w3.org/2000/svg"
   xmlns="http://www.w3.org/2000/svg"
   xmlns:xlink="http://www.w3.org/1999/xlink"
   xmlns:sodipodi="http://inkscape.sourceforge.net/DTD/sodipodi-0.dtd"
   xmlns:inkscape="http://www.inkscape.org/namespaces/inkscape"
   width="561.28003pt"
   height="468.89005pt"
   id="svg2"
   sodipodi:version="0.32"
   inkscape:version="0.43"
   version="1.0"
   sodipodi:docbase="/home/yekcim/Desktop"
   sodipodi:docname="superman.svg">
  <defs
     id="defs4">
    <linearGradient
       id="linearGradient2261">
      <stop
         style="stop-color:#ded700;stop-opacity:1;"
         offset="0"
         id="stop2263" />
      <stop
         style="stop-color:#fffb6b;stop-opacity:1;"
         offset="1"
         id="stop2265" />
    </linearGradient>
    <linearGradient
       id="linearGradient2216">
      <stop
         style="stop-color:#9f0000;stop-opacity:1;"
         offset="0"
         id="stop2218" />
      <stop
         style="stop-color:#2d0000;stop-opacity:1;"
         offset="1"
         id="stop2220" />
    </linearGradient>
    <linearGradient
       inkscape:collect="always"
       xlink:href="#linearGradient2216"
       id="linearGradient2222"
       x1="452.65405"
       y1="646.7738"
       x2="462.90179"
       y2="660.474"
       gradientUnits="userSpaceOnUse"
       gradientTransform="matrix(29.64798,0,0,31.58038,-13138.21,-20228.23)" />
    <linearGradient
       inkscape:collect="always"
       xlink:href="#linearGradient2261"
       id="linearGradient2267"
       x1="455"
       y1="649.50208"
       x2="455"
       y2="641.21216"
       gradientUnits="userSpaceOnUse"
       gradientTransform="matrix(29.64798,0,0,31.58038,-13138.52,-20232.6)" />
  </defs>
  <sodipodi:namedview
     id="base"
     pagecolor="#ffffff"
     bordercolor="#666666"
     borderopacity="1.0"
     inkscape:pageopacity="0.0"
     inkscape:pageshadow="2"
     inkscape:zoom="0.49497475"
     inkscape:cx="311.70979"
     inkscape:cy="278.98482"
     inkscape:document-units="px"
     inkscape:current-layer="layer1"
     showgrid="false"
     inkscape:window-width="880"
     inkscape:window-height="596"
     inkscape:window-x="164"
     inkscape:window-y="49" />
  <metadata
     id="metadata7">
    <rdf:RDF>
      <cc:Work
         rdf:about="">
        <dc:format>image/svg+xml</dc:format>
        <dc:type
           rdf:resource="http://purl.org/dc/dcmitype/StillImage" />
      </cc:Work>
    </rdf:RDF>
  </metadata>
  <g
     inkscape:label="Calque 1"
     inkscape:groupmode="layer"
     id="layer1">
    <path
       style="fill:url(#linearGradient2267);fill-opacity:1;fill-rule:evenodd;stroke:#9f0000;stroke-width:70.3775177;stroke-linecap:butt;stroke-linejoin:round;stroke-miterlimit:4;stroke-dasharray:none;stroke-opacity:1"
       d="M 203.06459,53.435241 L 499.54439,53.435241 L 647.7843,211.33708 L 351.30449,527.14076 L 54.824695,211.33708 L 203.06459,53.435241 z "
       id="path1309" />
    <path
       style="font-size:16.08726883px;font-style:normal;font-variant:normal;font-weight:bold;font-stretch:normal;text-align:start;line-height:125%;writing-mode:lr-tb;text-anchor:start;fill:url(#linearGradient2222);fill-opacity:1;stroke:#000000;stroke-width:15.29946136;stroke-linecap:round;stroke-linejoin:round;stroke-miterlimit:4;stroke-dasharray:none;stroke-opacity:1;font-family:URW Bookman L"
       d="M 195.04007,18.734731 C 188.51721,20.508284 182.1764,24.472884 177.43657,29.590483 L 29.196674,187.49232 C 28.975805,187.72412 28.485123,188.24204 28.270167,188.47921 C 26.390786,190.65889 24.073206,193.8384 22.711172,196.3743 C 20.251871,201.22726 18.471225,207.58849 18.078684,213.15137 C 18.047842,213.80824 18.078684,215.45106 18.078684,216.11203 C 18.078684,216.77301 18.047842,217.42893 18.078684,218.0858 C 18.471225,223.64868 20.251871,230.00991 22.711172,234.86288 C 24.073206,237.39877 26.390786,240.57828 28.270167,242.75796 C 28.485123,242.99512 28.975805,243.51304 29.196674,243.74485 L 325.67648,559.54854 C 325.90151,559.78349 326.37349,560.30774 326.60297,560.53541 C 327.5363,561.41682 329.31635,562.73216 330.30898,563.49607 C 331.56664,564.41413 333.60968,565.72217 334.94146,566.45673 C 337.63084,567.85227 341.33239,569.74331 344.20646,570.40428 C 348.82295,571.34444 354.41397,571.34444 359.03046,570.40428 C 361.90453,569.74331 365.60608,567.85227 368.29546,566.45673 C 369.62724,565.72217 371.67028,564.41413 372.92794,563.49607 C 373.92056,562.73216 375.70061,561.41682 376.63395,560.53541 C 376.86342,560.30774 377.33541,559.78349 377.56044,559.54854 L 674.04024,243.74485 C 674.26114,243.51304 674.7518,242.99512 674.96675,242.75796 C 676.84613,240.57828 679.16371,237.39877 680.52574,234.86288 C 682.98504,230.00991 684.76571,223.64837 685.15826,218.0858 C 685.18908,217.42893 685.15826,216.77301 685.15826,216.11203 C 685.15826,215.45106 685.18908,213.80824 685.15826,213.15137 C 684.76571,207.58849 682.98504,201.22726 680.52574,196.3743 C 679.16371,193.8384 676.84613,190.65889 674.96675,188.47921 C 674.7518,188.24204 674.26114,187.72412 674.04024,187.49232 L 525.80034,29.590483 C 525.58185,29.369419 525.0968,28.818344 524.87385,28.603596 C 518.0551,22.345946 508.89951,18.627359 499.85835,18.734731 L 203.37856,18.734731 C 200.91421,18.471036 198.4309,18.471036 195.96656,18.734731 C 195.52689,18.836419 195.475,18.61662 195.04007,18.734731 z M 218.20254,97.685653 L 243.21804,97.685653 C 215.6795,116.32596 200.50834,145.33664 202.45206,179.59723 C 204.16631,209.81049 219.97549,236.77286 245.07103,251.63994 C 263.35345,262.18999 273.60603,265.36476 334.01498,279.27276 L 384.97245,291.1154 C 401.7772,295.10178 413.33193,298.66153 421.10591,302.95803 C 422.98233,304.04441 425.23292,305.71343 426.66491,306.90559 C 427.4491,307.59689 428.79157,309.13042 429.44441,309.86624 C 429.59975,310.05319 430.22325,310.66301 430.37091,310.85314 C 430.51085,311.04641 431.16487,311.64358 431.29742,311.84001 C 431.54794,312.23983 432.00215,313.39978 432.2239,313.8138 C 432.43174,314.23506 432.96956,315.35081 433.15041,315.78756 C 433.31822,316.23222 433.9343,317.30026 434.07692,317.76133 C 434.59783,319.63943 434.83796,322.49239 435.0034,324.66954 C 435.44546,332.46264 432.84266,340.31478 428.51792,346.38105 C 418.75749,359.20141 398.97487,368.09255 373.85445,368.09255 C 338.48678,368.09224 302.32306,352.56858 275.64551,327.6302 C 261.18709,313.24345 251.14796,301.81325 236.73254,279.27276 L 198.74606,291.1154 L 214.49655,329.60396 L 107.02263,216.11203 L 218.20254,97.685653 z M 450.7539,97.685653 L 485.03438,97.685653 L 596.21431,216.11203 L 511.90285,304.93182 C 511.90464,302.89836 512.02026,301.07869 511.90285,299.0105 C 510.21589,269.27569 495.19473,243.32926 471.13689,228.94156 C 455.43561,219.3506 440.08388,214.3129 397.01694,203.28251 L 350.69196,191.43987 C 349.14878,190.96016 339.98667,189.38304 325.67648,186.50544 C 307.15064,182.51873 294.05899,177.19554 286.76349,170.71525 C 286.57879,170.54251 286.0146,169.90364 285.83701,169.72837 C 285.66652,169.55088 285.07387,168.92149 284.91051,168.74148 C 284.75426,168.55926 284.13313,167.93934 283.984,167.75459 C 283.41565,167.00551 282.58758,165.58376 282.13101,164.79393 C 281.91664,164.39381 281.39158,163.23102 281.2045,162.82016 C 281.11793,162.61205 280.35806,162.04423 280.27801,161.83327 C 280.13155,161.40599 280.39748,160.29784 280.27801,159.8595 C 280.11881,159.19347 279.45114,157.59108 279.35151,156.89884 C 279.29814,156.43145 279.37879,155.40477 279.35151,154.92507 C 279.31651,154.31051 279.34083,153.55416 279.35151,152.95129 C 280.36577,134.74174 302.26793,121.37093 333.08847,121.37093 C 361.88764,121.37187 394.30533,134.27498 414.62041,153.93818 C 423.69982,162.57004 430.60929,170.33818 447.9744,191.43987 L 483.18136,178.61035 L 450.7539,97.685653 z M 283.984,389.80406 C 306.04774,404.67146 341.35017,414.4762 375.70744,414.4762 C 388.89724,414.4762 400.9868,412.90795 412.76742,410.52867 L 351.61847,475.66317 L 281.2045,400.6598 L 283.984,389.80406 z "
       id="path2247" />
    <text
       xml:space="preserve"
       style="font-size:479.21774292px;font-style:normal;font-variant:normal;font-weight:bold;font-stretch:normal;text-align:start;line-height:125%;writing-mode:lr-tb;text-anchor:start;fill:none;fill-opacity:1;stroke:#000000;stroke-width:6.39000052;stroke-linecap:butt;stroke-linejoin:round;stroke-miterlimit:4;stroke-dasharray:none;stroke-opacity:1;font-family:URW Bookman L"
       x="175.24191"
       y="410.94376"
       id="text2186"
       sodipodi:linespacing="125%"
       transform="matrix(1.01828,0,5.483537e-2,0.982048,0,0)"><tspan
         sodipodi:role="line"
         id="tspan2188"
         x="175.24191"
         y="410.94376"
         style="stroke:#000000;stroke-width:6.39000052;stroke-miterlimit:4;stroke-dasharray:none;stroke-opacity:1">S</tspan></text>
    <path
       style="fill:none;fill-opacity:1;fill-rule:evenodd;stroke:#000000;stroke-width:0;stroke-linecap:butt;stroke-linejoin:round;stroke-miterlimit:4;stroke-dasharray:none;stroke-opacity:1"
       d="M 200.28509,28.181051 C 195.0623,28.781079 190.17424,31.210872 186.3876,35.089256 L 38.147687,192.9911 C 33.470134,197.75752 30.824641,204.3534 30.824641,211.24865 C 30.824641,218.1436 33.470134,224.73948 38.147687,229.5059 L 334.6275,545.30957 C 343.86848,555.04107 358.74051,555.04107 367.98147,545.30957 L 664.46128,229.5059 C 669.13886,224.73948 671.78435,218.1436 671.78435,211.24865 C 671.78435,204.3534 669.13886,197.75752 664.46128,192.9911 L 516.22137,35.089256 C 511.7223,30.555896 505.73697,28.076521 499.54439,28.181051 L 203.06459,28.181051 C 202.13898,28.12326 201.2107,28.12326 200.28509,28.181051 z M 213.25608,78.512264 L 489.35291,78.512264 L 614.43032,211.74194 L 351.30449,491.03081 L 88.178662,211.74194 L 213.25608,78.512264 z "
       id="path2190" />
  </g>
</svg>
